<?xml version="1.0" encoding="UTF-8"?>
<svg version="1.1" xmlns="http://www.w3.org/2000/svg" width="100" height="100">
<path d="M0 0 C0.68418188 -0.00012053 1.36836376 -0.00024107 2.07327843 -0.00036526 C4.29156095 0.00038211 6.50975982 0.0080023 8.72802734 0.01586914 C10.09610961 0.01733911 11.46419245 0.01835948 12.83227539 0.0189209 C17.90951378 0.02416744 22.98674013 0.03812861 28.06396484 0.05102539 C45.07958984 0.08196289 45.07958984 0.08196289 62.43896484 0.11352539 C62.43896484 24.53352539 62.43896484 48.95352539 62.43896484 74.11352539 C30.75146484 74.48852539 30.75146484 74.48852539 20.7644043 74.59155273 C18.15200782 74.62675832 15.53962084 74.66267953 12.92724609 74.69946289 C11.91430733 74.7077562 11.91430733 74.7077562 10.88090515 74.71621704 C8.88103633 74.73334065 6.88129539 74.76378997 4.8815918 74.79467773 C3.75574173 74.8080014 2.62989166 74.82132507 1.46992493 74.83505249 C-1.83483391 75.13868096 -5.12680862 75.67929885 -7.56103516 78.11352539 C-7.81108901 81.07169646 -7.81108901 81.07169646 -7.56103516 84.11352539 C-4.01116995 87.6633906 -0.07668687 87.25208924 4.76806641 87.31884766 C6.68960541 87.34876549 6.68960541 87.34876549 8.64996338 87.37928772 C10.04317098 87.39626949 11.43637984 87.41314838 12.82958984 87.42993164 C14.25877467 87.45051333 15.68795357 87.47151012 17.11712646 87.49290466 C20.87189935 87.54799988 24.62672602 87.59746428 28.3815918 87.64575195 C32.2158688 87.69605884 36.05006804 87.75169687 39.88427734 87.80688477 C47.40244059 87.91431275 54.92066866 88.01579155 62.43896484 88.11352539 C62.43896484 89.43352539 62.43896484 90.75352539 62.43896484 92.11352539 C53.52887519 92.18308494 44.61887925 92.23636678 35.70857716 92.26896191 C31.57100129 92.28460721 27.43361141 92.30582456 23.29614258 92.33984375 C19.30204634 92.37247798 15.30812882 92.39038695 11.31390953 92.39815712 C9.79128901 92.40369336 8.26867809 92.41450439 6.7461338 92.43071556 C4.61073414 92.45254453 2.47606974 92.45549013 0.34057617 92.45410156 C-1.48143562 92.46409431 -1.48143562 92.46409431 -3.34025574 92.47428894 C-6.89603241 92.07600193 -8.7292008 91.2644809 -11.56103516 89.11352539 C-13.97834465 85.48756115 -13.86355352 82.80836635 -13.86743164 78.61621094 C-13.87575516 77.85487854 -13.88407867 77.09354614 -13.89265442 76.30914307 C-13.91677109 73.78945821 -13.92552906 71.27003222 -13.93212891 68.75024414 C-13.94109495 66.9977053 -13.95021679 65.24516726 -13.95948792 63.49263 C-13.97598567 59.81651957 -13.98367928 56.14050028 -13.98657227 52.46435547 C-13.99195271 47.75981608 -14.02961486 43.05613672 -14.07531643 38.35184002 C-14.10510107 34.73064571 -14.11229614 31.10965797 -14.11329842 27.48835182 C-14.11749901 25.75442382 -14.12992697 24.02049511 -14.15081596 22.28668785 C-14.17775696 19.85682916 -14.17289801 17.4289566 -14.16040039 14.99902344 C-14.17523468 14.28659988 -14.19006897 13.57417633 -14.20535278 12.84016418 C-14.12319379 7.21377716 -12.39988005 4.92583882 -8.56103516 1.11352539 C-5.68359248 -0.32519595 -3.21537593 -0.00584614 0 0 Z M6.43896484 17.11352539 C4.86735192 20.25675124 5.0887419 22.64412935 5.43896484 26.11352539 C7.56666551 29.08388379 7.56666551 29.08388379 10.43896484 31.55102539 C11.83115234 32.8484668 11.83115234 32.8484668 13.25146484 34.17211914 C14.33427734 35.13311523 14.33427734 35.13311523 15.43896484 36.11352539 C18.6001226 34.74369036 19.43167404 34.12446159 21.43896484 31.11352539 C19.1304854 28.7761844 16.81653144 26.44434073 14.50146484 24.11352539 C13.84210937 23.44579102 13.18275391 22.77805664 12.50341797 22.09008789 C11.875 21.45844727 11.24658203 20.82680664 10.59912109 20.17602539 C10.01783447 19.58950195 9.43654785 19.00297852 8.83764648 18.39868164 C7.63281457 17.00076016 7.63281457 17.00076016 6.43896484 17.11352539 Z M30.82177734 20.92211914 C29.25908228 23.39859352 29.30158406 24.48571247 29.20043945 27.35375977 C28.67238148 32.6051162 26.65510605 34.96696223 22.87255859 38.46118164 C22.31907242 39.00334824 21.76558624 39.54551483 21.19532776 40.10411072 C19.4403893 41.81461918 17.65965906 43.49504482 15.87646484 45.17602539 C14.67476936 46.33755098 13.47487878 47.50094699 12.27685547 48.66625977 C9.35131499 51.50406629 6.40231532 54.31524639 3.43896484 57.11352539 C6.55304597 57.44442428 6.55304597 57.44442428 8.63818359 55.17211914 C9.45931641 54.3071582 10.28044922 53.44219727 11.12646484 52.55102539 C14.82696124 48.73202693 18.5805837 45.13944723 22.64599609 41.71508789 C24.38966367 40.15756348 25.8492193 38.50427229 27.37646484 36.73852539 C30.41127753 33.57933514 33.103945 33.6500542 37.32177734 33.42993164 C39.74750992 33.23333099 39.74750992 33.23333099 42.37646484 30.98852539 C44.76293309 27.66193328 45.84913798 25.16858508 46.43896484 21.11352539 C45.69359734 18.53635179 45.69359734 18.53635179 43.43896484 17.11352539 C37.87980893 16.04445695 35.0298895 17.61035375 30.82177734 20.92211914 Z M28.37646484 43.11352539 C27.73708984 43.77352539 27.09771484 44.43352539 26.43896484 45.11352539 C27.09896484 46.43352539 27.75896484 47.75352539 28.43896484 49.11352539 C30.08896484 48.45352539 31.73896484 47.79352539 33.43896484 47.11352539 C34.70353516 48.41290039 34.70353516 48.41290039 35.99365234 49.73852539 C37.10015841 50.8637858 38.20694373 51.98877167 39.31396484 53.11352539 C39.86955078 53.68586914 40.42513672 54.25821289 40.99755859 54.84790039 C42.44030888 56.30803321 43.93640225 57.71501837 45.43896484 59.11352539 C46.09896484 59.11352539 46.75896484 59.11352539 47.43896484 59.11352539 C46.0842336 56.0868131 44.56500565 53.99215733 42.21630859 51.66040039 C41.2852832 50.73227539 41.2852832 50.73227539 40.33544922 49.78540039 C39.68898438 49.15118164 39.04251953 48.51696289 38.37646484 47.86352539 C37.72613281 47.21383789 37.07580078 46.56415039 36.40576172 45.89477539 C32.68010367 41.13565034 32.68010367 41.13565034 28.37646484 43.11352539 Z " fill="#FD7D13" transform="translate(25.56103515625,3.886474609375)"/>
</svg>
